<?xml version="1.0" encoding="UTF-8" ?>
<!DOCTYPE svg PUBLIC "-//W3C//DTD SVG 1.1//EN" "http://www.w3.org/Graphics/SVG/1.1/DTD/svg11.dtd">

<svg width="440" height="400"  viewBox="-50 -50 200 160" version="1.1" xmlns="http://www.w3.org/2000/svg"  style=" background: #eaeaea;">
<g id="#c3c8d1ff" >
<path fill="#c3c8d1" opacity="1.00" d=" M 11.01 0.00 L 101.00 0.00 L 101.00 49.00 C 98.25 49.00 92.76 49.00 90.01 49.00 C 90.00 52.33 90.00 55.67 90.00 59.00 L 0.00 59.00 L 0.00 10.00 C 2.75 10.00 8.25 10.00 11.00 10.00 C 11.00 6.66 11.00 3.33 11.01 0.00 M 14.00 3.00 C 14.00 4.75 14.00 8.25 14.00 10.00 C 39.33 10.01 64.67 9.99 90.00 10.00 C 90.00 22.00 90.00 34.00 90.00 46.00 C 92.67 46.00 95.33 46.00 98.00 46.00 C 98.00 31.67 98.01 17.33 98.00 3.00 C 70.00 3.00 42.00 3.00 14.00 3.00 M 3.00 13.00 C 3.00 27.34 2.99 41.67 3.00 56.00 C 31.00 56.00 59.00 56.01 87.00 56.00 C 87.00 41.66 87.01 27.33 87.00 13.00 C 59.00 13.00 31.00 12.99 3.00 13.00 Z" />
</g>
</svg>
